<?xml version="1.0" encoding="UTF-8"?>
<svg xmlns="http://www.w3.org/2000/svg" width="720" height="180" viewBox="0 0 720 180">
  <defs>
    <linearGradient id="g" x1="0" y1="0" x2="1" y2="1">
      <stop offset="0%" stop-color="#2563EB"/>
      <stop offset="100%" stop-color="#7C3AED"/>
    </linearGradient>
  </defs>

  <!-- Icon -->
  <g transform="translate(20,20)">
    <!-- Crescent -->
    <path fill="url(#g)"
      d="M70,10
         A60,60 0 1 0 70,130
         A46,46 0 1 1 70,10 Z"/>
    <!-- L -->
    <path fill="#FFFFFF"
      d="M58 36
         a6 6 0 0 1 12 0
         v56
         c0 10 8 18 18 18
         h20
         a6 6 0 0 1 0 12
         h-20
         c-17 0-30-13-30-30z"/>
    <!-- Star -->
    <path fill="#4F7DFF"
      d="M120 18
         L124 28
         L134 32
         L124 36
         L120 46
         L116 36
         L106 32
         L116 28 Z"/>
  </g>

  <!-- Wordmark -->
  <text x="170" y="92"
        font-family="Manrope, Arial, Helvetica, sans-serif"
        font-size="68"
        font-weight="800"
        letter-spacing="3"
        fill="#0F172A">LUNECIA</text>
</svg>
